REM DIRINDEX 1\3,1\4,1\5,1\6,1\2\7,1\2\8,1\2\9,1\10
REM DIRNAME folder01,folder02,folder03,folder04,folder05,folder06,folder07,folder08,folder09,folder10
TITLE ""
FILE "1-21 Level 1-Šç‚Æ‘Ì.mp3" MP3
  TRACK 01 AUDIO
    TITLE "0:"
    INDEX 01 00:00:00
  TRACK 02 AUDIO
    TITLE "5:cjc056_0569"
    INDEX 01 00:00:05
  TRACK 03 AUDIO
    TITLE "0:"
    INDEX 01 00:01:56
  TRACK 04 AUDIO
    TITLE "5:cjc056_0570"
    INDEX 01 00:02:69
  TRACK 05 AUDIO
    TITLE "0:"
    INDEX 01 00:03:70
  TRACK 06 AUDIO
    TITLE "5:cjc056_0571"
    INDEX 01 00:04:09
  TRACK 07 AUDIO
    TITLE "0:"
    INDEX 01 00:04:74
  TRACK 08 AUDIO
    TITLE "5:cjc056_0572"
    INDEX 01 00:05:48
  TRACK 09 AUDIO
    TITLE "0:"
    INDEX 01 00:06:41
  TRACK 10 AUDIO
    TITLE "5:cjc056_0573"
    INDEX 01 00:06:55
  TRACK 11 AUDIO
    TITLE "0:"
    INDEX 01 00:07:64
  TRACK 12 AUDIO
    TITLE "5:cjc056_0574"
    INDEX 01 00:08:36
  TRACK 13 AUDIO
    TITLE "0:"
    INDEX 01 00:09:38
  TRACK 14 AUDIO
    TITLE "5:cjc056_0575"
    INDEX 01 00:09:57
  TRACK 15 AUDIO
    TITLE "0:"
    INDEX 01 00:10:53
  TRACK 16 AUDIO
    TITLE "5:cjc056_0576"
    INDEX 01 00:11:25
  TRACK 17 AUDIO
    TITLE "0:"
    INDEX 01 00:12:20
  TRACK 18 AUDIO
    TITLE "5:cjc056_0577"
    INDEX 01 00:12:34
  TRACK 19 AUDIO
    TITLE "0:"
    INDEX 01 00:13:28
  TRACK 20 AUDIO
    TITLE "5:cjc056_0578"
    INDEX 01 00:14:02
  TRACK 21 AUDIO
    TITLE "0:"
    INDEX 01 00:16:08
  TRACK 22 AUDIO
    TITLE "5:cjc056_0579"
    INDEX 01 00:16:22
  TRACK 23 AUDIO
    TITLE "0:"
    INDEX 01 00:17:00
  TRACK 24 AUDIO
    TITLE "5:cjc056_0580"
    INDEX 01 00:17:47
  TRACK 25 AUDIO
    TITLE "0:"
    INDEX 01 00:18:50
  TRACK 26 AUDIO
    TITLE "5:cjc056_0581"
    INDEX 01 00:18:60
  TRACK 27 AUDIO
    TITLE "0:"
    INDEX 01 00:19:62
  TRACK 28 AUDIO
    TITLE "5:cjc056_0582"
    INDEX 01 00:20:37
  TRACK 29 AUDIO
    TITLE "0:"
    INDEX 01 00:21:41
  TRACK 30 AUDIO
    TITLE "5:cjc056_0583"
    INDEX 01 00:21:57
  TRACK 31 AUDIO
    TITLE "0:"
    INDEX 01 00:22:48
  TRACK 32 AUDIO
    TITLE "5:cjc056_0584"
    INDEX 01 00:23:18
  TRACK 33 AUDIO
    TITLE "0:"
    INDEX 01 00:24:31
  TRACK 34 AUDIO
    TITLE "5:cjc056_0585"
    INDEX 01 00:24:47
  TRACK 35 AUDIO
    TITLE "0:"
    INDEX 01 00:25:39
  TRACK 36 AUDIO
    TITLE "5:cjc056_0586"
    INDEX 01 00:26:13
  TRACK 37 AUDIO
    TITLE "0:"
    INDEX 01 00:27:12
  TRACK 38 AUDIO
    TITLE "5:cjc056_0587"
    INDEX 01 00:27:22
  TRACK 39 AUDIO
    TITLE "0:"
    INDEX 01 00:28:06
  TRACK 40 AUDIO
    TITLE "5:cjc056_0588"
    INDEX 01 00:28:55
  TRACK 41 AUDIO
    TITLE "0:"
    INDEX 01 00:29:54
  TRACK 42 AUDIO
    TITLE "5:cjc056_0589"
    INDEX 01 00:29:68
  TRACK 43 AUDIO
    TITLE "0:"
    INDEX 01 00:30:63
  TRACK 44 AUDIO
    TITLE "5:cjc056_0590"
    INDEX 01 00:31:35
  TRACK 45 AUDIO
    TITLE "0:"
    INDEX 01 00:32:45
  TRACK 46 AUDIO
    TITLE "5:cjc056_0591"
    INDEX 01 00:32:58
  TRACK 47 AUDIO
    TITLE "0:"
    INDEX 01 00:33:52
  TRACK 48 AUDIO
    TITLE "5:cjc056_0592"
    INDEX 01 00:34:28
  TRACK 49 AUDIO
    TITLE "0:"
    INDEX 01 00:35:19
  TRACK 50 AUDIO
    TITLE "5:cjc056_0593"
    INDEX 01 00:35:37
  TRACK 51 AUDIO
    TITLE "0:"
    INDEX 01 00:36:33
  TRACK 52 AUDIO
    TITLE "5:cjc056_0594"
    INDEX 01 00:37:05
  TRACK 53 AUDIO
    TITLE "0:"
    INDEX 01 00:38:12
  TRACK 54 AUDIO
    TITLE "5:cjc056_0595"
    INDEX 01 00:38:24
  TRACK 55 AUDIO
    TITLE "0:"
    INDEX 01 00:39:43
  TRACK 56 AUDIO
    TITLE "5:cjc056_0596"
    INDEX 01 00:40:17
  TRACK 57 AUDIO
    TITLE "0:"
    INDEX 01 00:41:30
  TRACK 58 AUDIO
    TITLE "5:cjc056_0597"
    INDEX 01 00:41:44
  TRACK 59 AUDIO
    TITLE "0:"
    INDEX 01 00:42:47
  TRACK 60 AUDIO
    TITLE "5:cjc056_0598"
    INDEX 01 00:43:23
  TRACK 61 AUDIO
    TITLE "0:"
    INDEX 01 00:44:36
  TRACK 62 AUDIO
    TITLE "5:cjc056_0599"
    INDEX 01 00:44:50
  TRACK 63 AUDIO
    TITLE "0:"
    INDEX 01 00:45:39
  TRACK 64 AUDIO
    TITLE "5:cjc056_0600"
    INDEX 01 00:46:07
  TRACK 65 AUDIO
    TITLE "0:"
    INDEX 01 00:47:17
  TRACK 66 AUDIO
    TITLE "5:cjc056_0601"
    INDEX 01 00:47:27
  TRACK 67 AUDIO
    TITLE "0:"
    INDEX 01 00:48:18
  TRACK 68 AUDIO
    TITLE "5:cjc056_0602"
    INDEX 01 00:48:67
  TRACK 69 AUDIO
    TITLE "0:"
    INDEX 01 00:50:03
  TRACK 70 AUDIO
    TITLE "5:cjc056_0603"
    INDEX 01 00:50:17
  TRACK 71 AUDIO
    TITLE "0:"
    INDEX 01 00:50:70
  TRACK 72 AUDIO
    TITLE "5:cjc056_0604"
    INDEX 01 00:51:48
  TRACK 73 AUDIO
    TITLE "0:"
    INDEX 01 00:52:53
  TRACK 74 AUDIO
    TITLE "5:cjc056_0605"
    INDEX 01 00:52:67
  TRACK 75 AUDIO
    TITLE "0:"
    INDEX 01 00:53:60
  TRACK 76 AUDIO
    TITLE "5:cjc056_0606"
    INDEX 01 00:54:32
  TRACK 77 AUDIO
    TITLE "0:"
    INDEX 01 00:55:44
  TRACK 78 AUDIO
    TITLE "5:cjc056_0607"
    INDEX 01 00:55:53
  TRACK 79 AUDIO
    TITLE "0:"
    INDEX 01 00:56:45
  TRACK 80 AUDIO
    TITLE "5:cjc056_0608"
    INDEX 01 00:57:17
  TRACK 81 AUDIO
    TITLE "0:"
    INDEX 01 00:58:20
  TRACK 82 AUDIO
    TITLE "5:cjc056_0609"
    INDEX 01 00:58:34
  TRACK 83 AUDIO
    TITLE "0:"
    INDEX 01 00:59:28
  TRACK 84 AUDIO
    TITLE "5:cjc056_0610"
    INDEX 01 01:00:02
  TRACK 85 AUDIO
    TITLE "0:"
    INDEX 01 01:01:07
  TRACK 86 AUDIO
    TITLE "5:cjc056_0611"
    INDEX 01 01:01:17
  TRACK 87 AUDIO
    TITLE "0:"
    INDEX 01 01:02:12
  TRACK 88 AUDIO
    TITLE "5:cjc056_0612"
    INDEX 01 01:02:61
  TRACK 89 AUDIO
    TITLE "0:"
    INDEX 01 01:04:56
  TRACK 90 AUDIO
    TITLE "5:cjc056_0613"
    INDEX 01 01:04:70
  TRACK 91 AUDIO
    TITLE "0:"
    INDEX 01 01:05:66
  TRACK 92 AUDIO
    TITLE "5:cjc056_0614"
    INDEX 01 01:06:42
  TRACK 93 AUDIO
    TITLE "0:"
    INDEX 01 01:07:49
  TRACK 94 AUDIO
    TITLE "5:cjc056_0615"
    INDEX 01 01:07:63
  TRACK 95 AUDIO
    TITLE "0:"
    INDEX 01 01:08:52
  TRACK 96 AUDIO
    TITLE "5:cjc056_0616"
    INDEX 01 01:09:20
  TRACK 97 AUDIO
    TITLE "0:"
    INDEX 01 01:10:26
  TRACK 98 AUDIO
    TITLE "5:cjc056_0617"
    INDEX 01 01:10:39
  TRACK 99 AUDIO
    TITLE "0:"
    INDEX 01 01:11:60
  TRACK 100 AUDIO
    TITLE "5:cjc056_0618"
    INDEX 01 01:12:34
  TRACK 101 AUDIO
    TITLE "0:"
    INDEX 01 01:13:47
  TRACK 102 AUDIO
    TITLE "5:cjc056_0619"
    INDEX 01 01:13:57
  TRACK 103 AUDIO
    TITLE "0:"
    INDEX 01 01:14:68
